<svg width="24" height="27" viewBox="0 0 24 27" fill="none" xmlns="http://www.w3.org/2000/svg">
<path d="M16.27 21.12C15.22 21.12 14.27 20.89 13.42 20.43C12.58 19.96 11.92 19.32 11.44 18.51C10.96 17.69 10.72 16.77 10.72 15.75C10.72 14.73 10.96 13.815 11.44 13.005C11.92 12.185 12.585 11.545 13.435 11.085C14.285 10.615 15.235 10.38 16.285 10.38C17.105 10.38 17.855 10.52 18.535 10.8C19.215 11.07 19.795 11.475 20.275 12.015L19.3 12.96C18.51 12.13 17.525 11.715 16.345 11.715C15.565 11.715 14.86 11.89 14.23 12.24C13.6 12.59 13.105 13.075 12.745 13.695C12.395 14.305 12.22 14.99 12.22 15.75C12.22 16.51 12.395 17.2 12.745 17.82C13.105 18.43 13.6 18.91 14.23 19.26C14.86 19.61 15.565 19.785 16.345 19.785C17.515 19.785 18.5 19.365 19.3 18.525L20.275 19.47C19.795 20.01 19.21 20.42 18.52 20.7C17.84 20.98 17.09 21.12 16.27 21.12Z" fill="#FF7E36"/>
<path d="M12.605 3.5V14H11.375L5.075 6.17V14H3.575V3.5H4.805L11.105 11.33V3.5H12.605Z" fill="#FF7E36"/>
</svg>
