<svg width="105" height="22" viewBox="0 0 105 22" fill="none" xmlns="http://www.w3.org/2000/svg">
<path d="M13.554 1.6V17H11.75L2.51 5.516V17H0.31V1.6H2.114L11.354 13.084V1.6H13.554ZM17.8555 5.34H19.9675V17H17.8555V5.34ZM18.9115 3.096C18.5008 3.096 18.1562 2.964 17.8775 2.7C17.6135 2.436 17.4815 2.11333 17.4815 1.732C17.4815 1.35067 17.6135 1.028 17.8775 0.763999C18.1562 0.485333 18.5008 0.345999 18.9115 0.345999C19.3222 0.345999 19.6595 0.477999 19.9235 0.742C20.2022 0.991332 20.3415 1.30667 20.3415 1.688C20.3415 2.084 20.2022 2.42133 19.9235 2.7C19.6595 2.964 19.3222 3.096 18.9115 3.096ZM35.154 5.34V15.416C35.154 17.4547 34.648 18.958 33.636 19.926C32.624 20.9087 31.1134 21.4 29.104 21.4C28.004 21.4 26.9554 21.246 25.958 20.938C24.9607 20.6447 24.154 20.2193 23.538 19.662L24.55 18.034C25.0927 18.5033 25.76 18.87 26.552 19.134C27.3587 19.4127 28.1874 19.552 29.038 19.552C30.402 19.552 31.4067 19.2293 32.052 18.584C32.712 17.9387 33.042 16.956 33.042 15.636V14.712C32.5434 15.3133 31.9274 15.768 31.194 16.076C30.4754 16.3693 29.6907 16.516 28.84 16.516C27.7254 16.516 26.7134 16.2813 25.804 15.812C24.9094 15.328 24.2054 14.6607 23.692 13.81C23.1787 12.9447 22.922 11.962 22.922 10.862C22.922 9.762 23.1787 8.78667 23.692 7.936C24.2054 7.07067 24.9094 6.40333 25.804 5.934C26.7134 5.46467 27.7254 5.23 28.84 5.23C29.72 5.23 30.534 5.39133 31.282 5.714C32.0447 6.03667 32.668 6.51333 33.152 7.144V5.34H35.154ZM29.082 14.668C29.8447 14.668 30.5267 14.5067 31.128 14.184C31.744 13.8613 32.2207 13.414 32.558 12.842C32.91 12.2553 33.086 11.5953 33.086 10.862C33.086 9.73267 32.712 8.82333 31.964 8.134C31.216 7.43 30.2554 7.078 29.082 7.078C27.894 7.078 26.926 7.43 26.178 8.134C25.43 8.82333 25.056 9.73267 25.056 10.862C25.056 11.5953 25.2247 12.2553 25.562 12.842C25.914 13.414 26.3907 13.8613 26.992 14.184C27.608 14.5067 28.3047 14.668 29.082 14.668ZM45.4155 5.23C46.8968 5.23 48.0702 5.66267 48.9355 6.528C49.8155 7.37867 50.2555 8.63267 50.2555 10.29V17H48.1435V10.532C48.1435 9.40267 47.8722 8.552 47.3295 7.98C46.7868 7.408 46.0095 7.122 44.9975 7.122C43.8535 7.122 42.9515 7.45933 42.2915 8.134C41.6315 8.794 41.3015 9.74733 41.3015 10.994V17H39.1895V0.675999H41.3015V6.99C41.7415 6.43267 42.3135 6 43.0175 5.692C43.7362 5.384 44.5355 5.23 45.4155 5.23ZM60.7201 16.318C60.4121 16.582 60.0308 16.7873 59.5761 16.934C59.1214 17.066 58.6521 17.132 58.1681 17.132C56.9948 17.132 56.0854 16.8167 55.4401 16.186C54.7948 15.5553 54.4721 14.6533 54.4721 13.48V7.078H52.4921V5.34H54.4721V2.788H56.5841V5.34H59.9281V7.078H56.5841V13.392C56.5841 14.0227 56.7381 14.5067 57.0461 14.844C57.3688 15.1813 57.8234 15.35 58.4101 15.35C59.0554 15.35 59.6054 15.1667 60.0601 14.8L60.7201 16.318ZM70.4675 17.176C68.9275 17.176 67.5342 16.8387 66.2875 16.164C65.0555 15.4747 64.0875 14.536 63.3835 13.348C62.6795 12.1453 62.3275 10.796 62.3275 9.3C62.3275 7.804 62.6795 6.462 63.3835 5.274C64.0875 4.07133 65.0628 3.13267 66.3095 2.458C67.5562 1.76867 68.9495 1.424 70.4895 1.424C71.6922 1.424 72.7922 1.62933 73.7895 2.04C74.7868 2.436 75.6375 3.03 76.3415 3.822L74.9115 5.208C73.7528 3.99067 72.3082 3.382 70.5775 3.382C69.4335 3.382 68.3995 3.63867 67.4755 4.152C66.5515 4.66533 65.8255 5.37667 65.2975 6.286C64.7842 7.18067 64.5275 8.18533 64.5275 9.3C64.5275 10.4147 64.7842 11.4267 65.2975 12.336C65.8255 13.2307 66.5515 13.9347 67.4755 14.448C68.3995 14.9613 69.4335 15.218 70.5775 15.218C72.2935 15.218 73.7382 14.602 74.9115 13.37L76.3415 14.756C75.6375 15.548 74.7795 16.1493 73.7675 16.56C72.7702 16.9707 71.6702 17.176 70.4675 17.176ZM79.1719 5.34H81.2839V17H79.1719V5.34ZM80.2279 3.096C79.8173 3.096 79.4726 2.964 79.1939 2.7C78.9299 2.436 78.7979 2.11333 78.7979 1.732C78.7979 1.35067 78.9299 1.028 79.1939 0.763999C79.4726 0.485333 79.8173 0.345999 80.2279 0.345999C80.6386 0.345999 80.9759 0.477999 81.2399 0.742C81.5186 0.991332 81.6579 1.30667 81.6579 1.688C81.6579 2.084 81.5186 2.42133 81.2399 2.7C80.9759 2.964 80.6386 3.096 80.2279 3.096ZM91.8725 16.318C91.5645 16.582 91.1831 16.7873 90.7285 16.934C90.2738 17.066 89.8045 17.132 89.3205 17.132C88.1471 17.132 87.2378 16.8167 86.5925 16.186C85.9471 15.5553 85.6245 14.6533 85.6245 13.48V7.078H83.6445V5.34H85.6245V2.788H87.7365V5.34H91.0805V7.078H87.7365V13.392C87.7365 14.0227 87.8905 14.5067 88.1985 14.844C88.5211 15.1813 88.9758 15.35 89.5625 15.35C90.2078 15.35 90.7578 15.1667 91.2125 14.8L91.8725 16.318ZM104.529 5.34L98.875 18.166C98.3763 19.354 97.7897 20.19 97.115 20.674C96.455 21.158 95.6557 21.4 94.717 21.4C94.145 21.4 93.5877 21.3047 93.045 21.114C92.517 20.938 92.077 20.674 91.725 20.322L92.627 18.738C93.2283 19.31 93.925 19.596 94.717 19.596C95.2303 19.596 95.6557 19.4567 95.993 19.178C96.345 18.914 96.6603 18.452 96.939 17.792L97.313 16.978L92.165 5.34H94.365L98.435 14.668L102.461 5.34H104.529Z" fill="white"/>
</svg>
